<svg width="35" height="35" viewBox="0 0 35 35" fill="none" xmlns="http://www.w3.org/2000/svg">
<path d="M34.2465 6.6631C32.9813 7.23039 31.6302 7.61685 30.2077 7.79331C31.6574 6.90227 32.7725 5.49789 33.3001 3.82227C31.9405 4.63164 30.4336 5.22081 28.8295 5.54893C27.5485 4.15039 25.7228 3.27539 23.6955 3.27539C19.8111 3.27539 16.6615 6.4881 16.6615 10.446C16.6615 11.0148 16.7258 11.5616 16.843 12.0852C10.9957 11.8037 5.81308 8.93956 2.34467 4.60977C1.7342 5.66268 1.39251 6.88622 1.39251 8.21914C1.39251 10.7129 2.63633 12.9048 4.52065 14.1925C3.36689 14.1546 2.28177 13.8308 1.33532 13.2941V13.3831C1.33532 16.8612 3.75577 19.7618 6.97683 20.4225C6.38638 20.5843 5.76304 20.6719 5.12397 20.6719C4.67505 20.6719 4.24472 20.6281 3.81438 20.5464C4.71651 23.3946 7.30995 25.4712 10.3966 25.5296C7.99476 27.4531 4.95098 28.5993 1.67272 28.5993C1.11515 28.5993 0.559004 28.5658 0 28.5016C3.12957 30.5346 6.81671 31.7231 10.8041 31.7231C23.7484 31.7231 30.8182 20.7914 30.8182 11.3268C30.8182 11.0221 30.8182 10.7143 30.7967 10.4081C32.1706 9.40331 33.3701 8.1331 34.3137 6.69227L34.2465 6.6631Z" fill="#FF3661"/>
</svg>
