<svg width="100" height="26" viewBox="0 0 100 26" fill="none" xmlns="http://www.w3.org/2000/svg">
<g clip-path="url(#clip0)">
<path d="M22.4655 19.0796C21.8561 20.4306 21.5514 21.0372 20.7758 22.2228C19.6677 23.9046 18.1165 25.9725 16.2051 26.0001C14.4877 26.0276 14.0445 24.8972 11.7453 24.8972C9.41843 24.8972 8.94752 26.0001 7.23007 26.0001C5.29101 25.9725 3.82286 24.0976 2.74253 22.4433C-0.387663 17.7837 -0.720073 12.297 1.19128 9.3744C2.54863 7.30653 4.68159 6.09338 6.67605 6.09338C8.72591 6.09338 10.0002 7.19625 11.6899 7.19625C13.3243 7.19625 14.3215 6.09338 16.6761 6.09338C18.4489 6.09338 20.3603 7.05839 21.6899 8.74025C17.2855 11.139 18.0057 17.3977 22.4655 19.0796Z" fill="black"/>
<path d="M14.8753 4.21845C15.7341 3.11559 16.3712 1.57158 16.1496 0C14.7368 0.0827147 13.1025 0.992577 12.1606 2.15058C11.3019 3.1983 10.5817 4.76988 10.8587 6.25875C12.3823 6.31389 13.9612 5.40403 14.8753 4.21845Z" fill="black"/>
<path d="M31.856 9.29163L27.4238 22.2503H29.446L30.7756 18.28H35.0416L36.3989 22.2503H38.4765L34.0443 9.3192H31.856V9.29163ZM32.9086 11.4422C33.0471 12.0212 33.2133 12.6278 33.4349 13.2619L34.626 16.6808H31.2465L32.41 13.2344C32.5762 12.6829 32.7424 12.0764 32.9086 11.4422Z" fill="black"/>
<path d="M44.2105 12.6554C42.8809 12.6554 41.8005 13.1793 41.0803 14.1443L40.9972 12.8484H39.1967V13.0138C39.2521 13.8134 39.2798 14.6957 39.2798 15.964V25.9449H41.2465V21.3129C41.8559 22.0297 42.8255 22.4709 43.9335 22.4709C45.0969 22.4709 46.1496 22.0297 46.9252 21.2026C47.7839 20.2927 48.2548 18.9969 48.2548 17.4253C48.2548 16.0467 47.867 14.8611 47.1191 13.9788C46.3435 13.1241 45.3185 12.6554 44.2105 12.6554ZM43.7119 14.2821C45.457 14.2821 46.2604 15.9088 46.2604 17.508C46.2604 19.5759 45.2631 20.8442 43.6565 20.8442C42.5485 20.8442 41.6066 20.0997 41.3296 19.0244C41.2742 18.859 41.2465 18.6384 41.2465 18.3903V16.8187C41.2465 16.6808 41.2742 16.5154 41.3019 16.3224C41.3019 16.2673 41.3296 16.2121 41.3296 16.157C41.6343 15.0541 42.6039 14.2821 43.7119 14.2821Z" fill="black"/>
<path d="M54.3214 12.6554C52.9917 12.6554 51.9114 13.1793 51.1912 14.1443L51.1081 12.8484H49.3075V13.0138C49.3629 13.8134 49.3906 14.6957 49.3906 15.964V25.9449H51.3574V21.3129C51.9668 22.0297 52.9363 22.4709 54.0443 22.4709C55.2078 22.4709 56.2604 22.0297 57.036 21.2026C57.8948 20.2927 58.338 18.9969 58.338 17.4253C58.338 16.0467 57.9502 14.8611 57.2022 13.9788C56.482 13.1241 55.4571 12.6554 54.3214 12.6554ZM53.8504 14.2821C55.5956 14.2821 56.3989 15.9088 56.3989 17.508C56.3989 19.5759 55.4017 20.8442 53.795 20.8442C52.687 20.8442 51.7452 20.0997 51.4682 19.0244C51.4128 18.859 51.3851 18.6384 51.3851 18.3903V16.8187C51.3851 16.6808 51.4128 16.4878 51.4405 16.3224C51.4405 16.2673 51.4682 16.2121 51.4682 16.157C51.7452 15.0541 52.7424 14.2821 53.8504 14.2821Z" fill="black"/>
<path d="M67.0084 14.7784C65.1801 14.0615 64.5984 13.5101 64.5984 12.49C64.5984 11.6352 65.2909 10.7529 66.8422 10.7529C68.1164 10.7529 68.9197 11.1941 69.1413 11.3319L69.3075 11.4422L69.8616 9.81551L69.7508 9.76037C69.4183 9.56737 68.4765 9.12622 66.8976 9.12622C64.3768 9.12622 62.6316 10.5875 62.6316 12.7105C62.6316 14.42 63.7397 15.6055 66.0942 16.4603C67.7563 17.0944 68.3934 17.7286 68.3934 18.8038C68.3934 20.0446 67.4239 20.8166 65.9003 20.8166C64.9031 20.8166 63.8505 20.5133 63.0748 20.017L62.9086 19.9067L62.3823 21.5886L62.4931 21.6437C63.2411 22.14 64.6261 22.4984 65.8172 22.4984C69.1967 22.4984 70.3879 20.4581 70.3879 18.6936C70.3325 16.8187 69.3629 15.7158 67.0084 14.7784Z" fill="black"/>
<path d="M73.8782 10.6427L71.9391 11.2493V12.876H70.5264V14.4476H71.9391V19.245C71.9391 20.403 72.1607 21.2026 72.6316 21.7265C73.0748 22.1952 73.7397 22.4709 74.543 22.4709C75.2909 22.4709 75.8172 22.3331 76.0665 22.2503L76.1773 22.2228L76.0942 20.6512L75.9003 20.7063C75.651 20.789 75.4017 20.8166 74.9862 20.8166C74.2106 20.8166 73.9059 20.3479 73.9059 19.2175V14.42H76.2881V12.8484H73.9059V10.6427H73.8782Z" fill="black"/>
<path d="M81.1081 12.6554C78.3657 12.6554 76.4266 14.6957 76.4266 17.6183C76.4266 20.4581 78.2826 22.4433 80.9419 22.4433H80.9696C83.2133 22.4433 85.651 20.8717 85.651 17.4528C85.651 16.0467 85.2078 14.8611 84.4045 13.9788C83.5734 13.1241 82.4377 12.6554 81.1081 12.6554ZM81.0527 14.1994C82.8255 14.1994 83.6288 15.9088 83.6288 17.508C83.6288 19.4656 82.5208 20.8993 81.025 20.8993H80.9973C79.5014 20.8993 78.4211 19.4931 78.4211 17.5631C78.4211 15.9088 79.2521 14.1994 81.0527 14.1994Z" fill="black"/>
<path d="M91.6898 12.7381L91.579 12.7105C91.4128 12.6554 91.2743 12.6554 91.0804 12.6554C90.0554 12.6554 89.1413 13.262 88.615 14.227L88.5596 12.8484H86.7867V13.0138C86.8421 13.7858 86.8699 14.6681 86.8699 15.8261L86.8421 22.2227H88.8089V17.2598C88.8089 16.9841 88.8366 16.736 88.8643 16.4878C89.0859 15.3023 89.8892 14.5027 90.9419 14.5027C91.1358 14.5027 91.302 14.5303 91.4682 14.5303L91.6898 14.5578V12.7381Z" fill="black"/>
<path d="M96.1219 12.6278C93.4904 12.6278 91.6621 14.7232 91.6621 17.701C91.6621 20.5684 93.4904 22.4157 96.2881 22.4157C97.7563 22.4157 98.8089 22.0849 99.3906 21.8091L99.5014 21.754L99.1136 20.2927L98.9474 20.3479C98.4211 20.5684 97.7009 20.789 96.482 20.789C95.6233 20.789 93.6566 20.5133 93.5458 17.9491L99.8892 17.9767L99.917 17.8388C99.9447 17.6458 99.9723 17.3701 99.9723 17.0117C100 15.0265 99.0028 12.6278 96.1219 12.6278ZM95.9834 14.1167C96.5929 14.1167 97.0638 14.3097 97.4239 14.6681C97.9779 15.2471 98.0887 16.0743 98.0887 16.4878H93.6012C93.7951 15.3574 94.5153 14.1167 95.9834 14.1167Z" fill="black"/>
<path d="M27.4238 0.468791C27.9778 0.386076 28.615 0.330933 29.3075 0.330933C30.5817 0.330933 31.4682 0.579077 32.0776 1.07537C32.687 1.57165 33.0471 2.28852 33.0471 3.28109C33.0471 4.27367 32.687 5.10082 32.0499 5.65225C31.4127 6.23125 30.3324 6.53454 29.0305 6.53454C28.3934 6.53454 27.867 6.50697 27.4238 6.45182V0.468791ZM28.3103 5.90039C28.5319 5.92796 28.8643 5.92796 29.1967 5.92796C31.0803 5.92796 32.1053 4.99053 32.1053 3.33624C32.1053 1.87494 31.1911 0.965079 29.3352 0.965079C28.892 0.965079 28.5319 0.992651 28.3103 1.04779V5.90039Z" fill="black"/>
<path d="M36.2327 6.61727C34.9031 6.61727 33.8782 5.73498 33.8782 4.3564C33.8782 2.89511 34.9585 2.01282 36.3158 2.01282C37.7286 2.01282 38.6704 2.92268 38.6704 4.27369C38.6704 5.90041 37.3962 6.61727 36.2327 6.61727ZM36.2604 6.0107C37.1192 6.0107 37.7563 5.29383 37.7563 4.30126C37.7563 3.55683 37.3408 2.61939 36.2881 2.61939C35.2355 2.61939 34.7923 3.50168 34.7923 4.32883C34.7646 5.29383 35.374 6.0107 36.2604 6.0107Z" fill="black"/>
<path d="M40.0831 2.09546L40.7479 4.32876C40.8864 4.82505 41.0249 5.29376 41.108 5.73491H41.1357C41.2465 5.29376 41.4127 4.82505 41.5789 4.32876L42.3823 2.09546H43.1302L43.8781 4.30119C44.072 4.82505 44.2105 5.29376 44.3213 5.73491H44.349C44.4321 5.29376 44.5706 4.82505 44.7368 4.30119L45.4293 2.09546H46.3158L44.7368 6.50691H43.9335L43.1856 4.41147C43.0194 3.91518 42.8809 3.47404 42.7424 2.95018H42.7147C42.6039 3.47404 42.4377 3.94275 42.2715 4.41147L41.4681 6.50691H40.6648L39.1967 2.09546H40.0831Z" fill="black"/>
<path d="M47.2023 3.30868C47.2023 2.83996 47.2023 2.48153 47.1746 2.1231H47.9779L48.0333 2.83996H48.061C48.3103 2.42639 48.8643 2.01282 49.6953 2.01282C50.3879 2.01282 51.4405 2.37125 51.4405 3.88768V6.50698H50.5541V3.9704C50.5541 3.25354 50.2494 2.67454 49.4183 2.67454C48.8366 2.67454 48.3934 3.06054 48.2272 3.50168C48.1995 3.61197 48.1718 3.74983 48.1718 3.88768V6.53456H47.2854V3.30868H47.2023Z" fill="black"/>
<path d="M52.8254 0.0551758H53.7119V6.50692H52.8254V0.0551758Z" fill="black"/>
<path d="M57.2022 6.61727C55.8726 6.61727 54.8477 5.73498 54.8477 4.3564C54.8477 2.89511 55.928 2.01282 57.2853 2.01282C58.6981 2.01282 59.6399 2.92268 59.6399 4.27369C59.6399 5.90041 58.3657 6.61727 57.2022 6.61727ZM57.2299 6.0107C58.0887 6.0107 58.7258 5.29383 58.7258 4.30126C58.7258 3.55683 58.3103 2.61939 57.2576 2.61939C56.205 2.61939 55.7618 3.50168 55.7618 4.32883C55.7341 5.29383 56.3435 6.0107 57.2299 6.0107Z" fill="black"/>
<path d="M64.2105 5.45916C64.2105 5.84516 64.2382 6.20359 64.2937 6.50688H63.4903L63.4072 5.95545H63.3795C63.1025 6.31388 62.5762 6.61717 61.8837 6.61717C60.8864 6.61717 60.3878 5.98302 60.3878 5.34887C60.3878 4.27358 61.4405 3.69458 63.3518 3.72215V3.63944C63.3518 3.281 63.241 2.61929 62.2438 2.61929C61.7729 2.61929 61.3019 2.72957 60.9418 2.95015L60.7479 2.42629C61.1634 2.20571 61.7452 2.04028 62.3823 2.04028C63.9058 2.04028 64.2659 2.95015 64.2659 3.83244V5.45916H64.2105ZM63.3518 4.27358C62.3823 4.24601 61.2742 4.41144 61.2742 5.26616C61.2742 5.79002 61.6621 6.03816 62.1053 6.03816C62.7424 6.03816 63.1579 5.67973 63.3241 5.29373C63.3518 5.21102 63.3518 5.1283 63.3518 5.04559V4.27358Z" fill="black"/>
<path d="M69.8892 0.0551758V5.37649C69.8892 5.76249 69.8892 6.20364 69.9169 6.50693H69.1136L69.0859 5.73492H69.0582C68.7812 6.23121 68.1995 6.58964 67.3962 6.58964C66.205 6.58964 65.2909 5.67978 65.2909 4.35634C65.2909 2.89505 66.3158 1.98519 67.4793 1.98519C68.2272 1.98519 68.7535 2.31605 68.9474 2.6469H68.9751V0.0551758H69.8892ZM69.0028 3.88763C69.0028 3.77734 69.0028 3.63948 68.9751 3.52919C68.8366 3.03291 68.3657 2.61933 67.7009 2.61933C66.7867 2.61933 66.2327 3.33619 66.2327 4.3012C66.2327 5.21106 66.7313 5.92792 67.6732 5.92792C68.2826 5.92792 68.8089 5.56949 68.9751 4.96292C69.0028 4.85263 69.0028 4.74234 69.0028 4.60449V3.88763Z" fill="black"/>
<path d="M75.5125 6.61727C74.1829 6.61727 73.158 5.73498 73.158 4.3564C73.158 2.89511 74.2383 2.01282 75.5956 2.01282C77.0084 2.01282 77.9502 2.92268 77.9502 4.27369C77.9779 5.90041 76.7037 6.61727 75.5125 6.61727ZM75.5679 6.0107C76.4267 6.0107 77.0638 5.29383 77.0638 4.30126C77.0638 3.55683 76.6483 2.61939 75.5956 2.61939C74.543 2.61939 74.0998 3.50168 74.0998 4.32883C74.0721 5.29383 74.6815 6.0107 75.5679 6.0107Z" fill="black"/>
<path d="M79.0859 3.30868C79.0859 2.83996 79.0859 2.48153 79.0582 2.1231H79.8615L79.917 2.83996H79.9447C80.194 2.42639 80.748 2.01282 81.579 2.01282C82.2715 2.01282 83.3241 2.37125 83.3241 3.88768V6.50698H82.4377V3.9704C82.4377 3.25354 82.133 2.67454 81.302 2.67454C80.7203 2.67454 80.2771 3.06054 80.1109 3.50168C80.0832 3.61197 80.0555 3.74983 80.0555 3.88768V6.53456H79.169V3.30868H79.0859Z" fill="black"/>
<path d="M87.9501 1.04773V2.09545H89.2244V2.70202H87.9501V5.07318C87.9501 5.62461 88.1163 5.9279 88.615 5.9279C88.8643 5.9279 89.0028 5.90033 89.1413 5.87276L89.169 6.47933C89.0028 6.53447 88.7258 6.58962 88.3657 6.58962C87.9501 6.58962 87.6177 6.45176 87.3961 6.25876C87.1468 6.01061 87.0637 5.62461 87.0637 5.10075V2.7296H86.3158V2.09545H87.0637V1.29587L87.9501 1.04773Z" fill="black"/>
<path d="M90.2216 0.0551758H91.108V2.81233H91.1357C91.2742 2.59176 91.4958 2.37119 91.7728 2.2609C92.0498 2.12304 92.3545 2.04033 92.6869 2.04033C93.3518 2.04033 94.4044 2.39876 94.4044 3.9152V6.5345H93.518V3.99791C93.518 3.28105 93.2133 2.70205 92.3822 2.70205C91.8005 2.70205 91.3573 3.06048 91.1911 3.50162C91.1357 3.58434 91.1357 3.69463 91.1357 3.86005V6.50693H90.2493V0.0551758H90.2216Z" fill="black"/>
<path d="M96.3712 4.4391C96.3989 5.51439 97.1468 5.95554 98.0332 5.95554C98.6704 5.95554 99.0582 5.84525 99.3906 5.73496L99.5568 6.2864C99.2521 6.42425 98.6981 6.56211 97.9224 6.56211C96.4266 6.56211 95.5125 5.65225 95.5125 4.35639C95.5125 3.03295 96.3989 1.98523 97.8116 1.98523C99.4183 1.98523 99.8338 3.25352 99.8338 4.0531C99.8338 4.21853 99.8338 4.35639 99.8061 4.4391H96.3712ZM98.9751 3.8601C98.9751 3.36381 98.7535 2.56423 97.7562 2.56423C96.8421 2.56423 96.4543 3.30867 96.3989 3.8601H98.9751Z" fill="black"/>
</g>
<defs>
<clipPath id="clip0">
<rect width="100" height="26" fill="white"/>
</clipPath>
</defs>
</svg>
