<svg width="100" height="23" viewBox="0 0 100 23" fill="none" xmlns="http://www.w3.org/2000/svg">
<g clip-path="url(#clip0)">
<path d="M78.2173 18.3478C77.7168 18.3478 77.2402 18.2529 76.8112 18.063C76.3822 17.8731 76.0247 17.5883 75.7387 17.1848H75.6434C75.6911 17.6357 75.7387 18.063 75.7387 18.4902V21.7183H74.5471V10.3963H75.5242L75.6911 11.4644H75.7387C76.0485 11.0372 76.406 10.7286 76.8112 10.5387C77.2163 10.3488 77.693 10.2539 78.2173 10.2539C79.2659 10.2539 80.0524 10.6099 80.6243 11.322C81.1963 12.0341 81.4823 13.031 81.4823 14.3127C81.4823 15.5945 81.1963 16.5914 80.6243 17.3034C80.0285 17.9918 79.2421 18.3478 78.2173 18.3478ZM78.0266 11.2508C77.2163 11.2508 76.6444 11.4644 76.2869 11.9154C75.9294 12.3664 75.7387 13.0547 75.7387 14.0279V14.289C75.7387 15.3808 75.9294 16.1641 76.2869 16.6388C76.6444 17.1136 77.2402 17.3509 78.0505 17.3509C78.7178 17.3509 79.2659 17.0661 79.6472 16.5202C80.0285 15.9742 80.2192 15.2147 80.2192 14.2653C80.2192 13.2921 80.0285 12.5325 79.6472 12.0104C79.2659 11.5119 78.7416 11.2508 78.0266 11.2508Z" fill="black"/>
<path d="M84.223 18.2054H83.0314V7.09705H84.223V18.2054Z" fill="black"/>
<path d="M91.0629 18.2054L90.8246 17.0898H90.7769C90.3956 17.5883 89.9904 17.9206 89.6091 18.0867C89.2278 18.2529 88.7273 18.3478 88.1553 18.3478C87.3689 18.3478 86.7731 18.1579 86.3203 17.7544C85.8674 17.3509 85.653 16.7813 85.653 16.0454C85.653 14.4551 86.9161 13.6481 89.4661 13.5532L90.8007 13.5057V13.031C90.8007 12.4139 90.6577 11.9629 90.3956 11.6781C90.1334 11.3932 89.7044 11.2508 89.1325 11.2508C88.489 11.2508 87.7264 11.4407 86.9161 11.8442L86.5586 10.9422C86.9399 10.7286 87.3689 10.5625 87.8217 10.4438C88.2745 10.3251 88.7511 10.2539 89.204 10.2539C90.1334 10.2539 90.8246 10.4675 91.2774 10.871C91.7302 11.2745 91.9447 11.9391 91.9447 12.8648V18.2054H91.0629ZM88.3698 17.3747C89.1086 17.3747 89.6806 17.161 90.1096 16.7575C90.5386 16.354 90.7531 15.7844 90.7531 15.0485V14.3365L89.5614 14.3839C88.6082 14.4077 87.9409 14.5738 87.5119 14.8349C87.0829 15.096 86.8922 15.4995 86.8922 16.0454C86.8922 16.4727 87.0114 16.805 87.2736 17.0186C87.5357 17.256 87.917 17.3747 88.3698 17.3747Z" fill="black"/>
<path d="M92.6357 10.3964H93.8988L95.6148 14.8587C95.9961 15.8793 96.2344 16.6151 96.3059 17.0661H96.3536C96.4251 16.8288 96.5442 16.4015 96.7349 15.8319C96.9255 15.2385 97.5928 13.4345 98.6891 10.4201H99.9761L96.5919 19.321C96.2582 20.1993 95.8769 20.8164 95.4241 21.1962C94.9713 21.5759 94.4232 21.7421 93.7797 21.7421C93.4222 21.7421 93.0647 21.6946 92.7072 21.6234V20.674C92.9694 20.7214 93.2554 20.7689 93.589 20.7689C94.3993 20.7689 94.9951 20.3179 95.3288 19.3922L95.7578 18.2766L92.6357 10.3964Z" fill="black"/>
<path d="M56.1725 11.1084C56.5538 11.417 57.3403 12.0816 57.3403 13.3158C57.3403 14.5264 56.6491 15.096 55.958 15.642C55.7435 15.8556 55.5052 16.0929 55.5052 16.449C55.5052 16.805 55.7435 16.9949 55.9341 17.161L56.53 17.612C57.2449 18.2292 57.9122 18.7751 57.9122 19.9144C57.9122 21.4572 56.4108 23.0001 53.5986 23.0001C51.2154 23.0001 50.0714 21.8607 50.0714 20.6502C50.0714 20.0568 50.3574 19.2261 51.3345 18.6564C52.3593 18.0393 53.7416 17.9443 54.4804 17.8969C54.2421 17.612 53.9799 17.3035 53.9799 16.7813C53.9799 16.4964 54.0514 16.3303 54.1467 16.1404C53.9561 16.1641 53.7892 16.1641 53.6224 16.1641C51.8827 16.1641 50.9055 14.8824 50.9055 13.6007C50.9055 12.8411 51.2392 12.0104 51.9542 11.417C52.8836 10.6574 54.0037 10.515 54.8855 10.515H58.2697L57.2211 11.1084H56.1725ZM55.0047 18.3716C54.8617 18.3478 54.7902 18.3478 54.6234 18.3478C54.4804 18.3478 53.5986 18.3716 52.9074 18.6089C52.55 18.7276 51.5013 19.1311 51.5013 20.2942C51.5013 21.4572 52.6453 22.288 54.385 22.288C55.958 22.288 56.7921 21.5284 56.7921 20.5315C56.7921 19.7008 56.2678 19.2498 55.0047 18.3716ZM55.4813 15.2622C55.8626 14.8824 55.8865 14.3602 55.8865 14.0754C55.8865 12.8886 55.1715 11.0609 53.8131 11.0609C53.3841 11.0609 52.9313 11.2746 52.6691 11.6069C52.3831 11.9392 52.3116 12.3901 52.3116 12.8174C52.3116 13.9092 52.9551 15.7369 54.3612 15.7369C54.7902 15.7369 55.2192 15.5233 55.4813 15.2622Z" fill="black"/>
<path d="M45.8294 18.1105C43.2317 18.1105 41.8256 16.0929 41.8256 14.2653C41.8256 12.129 43.5891 10.3014 46.0677 10.3014C48.4747 10.3014 49.9762 12.1765 49.9762 14.1466C50 16.0692 48.4986 18.1105 45.8294 18.1105ZM47.8789 16.7813C48.2841 16.2591 48.3794 15.5945 48.3794 14.9773C48.3794 13.5295 47.6883 10.7998 45.6625 10.7998C45.1144 10.7998 44.5901 11.0135 44.1849 11.3458C43.5415 11.9154 43.4223 12.6275 43.4223 13.3396C43.4223 14.9536 44.2326 17.612 46.2107 17.612C46.8542 17.612 47.4976 17.3035 47.8789 16.7813Z" fill="black"/>
<path d="M36.94 18.1105C34.3423 18.1105 32.9362 16.0929 32.9362 14.2653C32.9362 12.129 34.6997 10.3014 37.1783 10.3014C39.5853 10.3014 41.0868 12.1765 41.0868 14.1466C41.1106 16.0692 39.6092 18.1105 36.94 18.1105ZM38.9895 16.7813C39.3947 16.2591 39.49 15.5945 39.49 14.9773C39.49 13.5295 38.7989 10.7998 36.7731 10.7998C36.225 10.7998 35.7007 11.0135 35.2955 11.3458C34.6521 11.9154 34.5329 12.6275 34.5329 13.3396C34.5329 14.9536 35.3432 17.612 37.3213 17.612C37.9648 17.612 38.6321 17.3035 38.9895 16.7813Z" fill="black"/>
<path d="M31.6968 17.8494L29.3374 18.3953C28.3841 18.5377 27.5262 18.6802 26.6206 18.6802C22.0686 18.6802 20.3289 15.3571 20.3289 12.7462C20.3289 9.56561 22.7836 6.59863 26.978 6.59863C27.8598 6.59863 28.7178 6.74105 29.5043 6.95467C30.7435 7.31071 31.3155 7.71422 31.673 7.97531L30.3146 9.28078L29.7426 9.42319L30.1477 8.75859C29.5758 8.21267 28.5748 7.21576 26.6206 7.21576C24.0228 7.21576 22.0448 9.18583 22.0448 12.0579C22.0448 15.1435 24.285 18.0393 27.8837 18.0393C28.9323 18.0393 29.4804 17.8257 29.9809 17.6358V14.9774L27.5024 15.1198L28.8131 14.4077H32.3165L31.8875 14.8112C31.7683 14.9062 31.7445 14.9536 31.7207 15.0723C31.6968 15.2147 31.6968 15.6894 31.6968 15.8556V17.8494Z" fill="black"/>
<path d="M61.3918 17.3747C60.8437 17.3272 60.7245 17.2322 60.7245 16.5914V16.4015V7.31067C60.7245 7.28693 60.7245 7.23946 60.7245 7.21572C60.796 6.64606 60.9628 6.55112 61.4633 6.24255H59.1039L57.8646 6.83595H59.1277V16.4252V16.9711C59.1277 17.3034 59.0562 17.3509 58.6749 17.8494H61.5825L62.2021 17.4933C61.9399 17.4221 61.6778 17.4221 61.3918 17.3747Z" fill="black"/>
<path d="M68.0887 17.5407C67.898 17.6357 67.7312 17.7544 67.5406 17.8256C66.9924 18.0629 66.4443 18.1341 65.9438 18.1341C65.4195 18.1341 64.6092 18.1104 63.7751 17.4933C62.6073 16.6863 62.1068 15.2858 62.1068 14.0516C62.1068 11.5356 64.1802 10.2776 65.8485 10.2776C66.4443 10.2776 67.0401 10.42 67.5406 10.7286C68.3509 11.2745 68.5653 11.9628 68.6845 12.3426L64.8475 13.8854L63.5844 13.9804C63.9896 16.0454 65.3957 17.2559 66.9686 17.2559C67.8027 17.2559 68.3985 16.9711 68.9705 16.6863L68.0887 17.5407ZM66.5634 12.6749C66.8733 12.5562 67.0401 12.4613 67.0401 12.2239C67.0401 11.5831 66.3013 10.8235 65.4195 10.8235C64.7522 10.8235 63.5367 11.322 63.5367 13.0784C63.5367 13.3632 63.5606 13.6481 63.5844 13.9329L66.5634 12.6749Z" fill="black"/>
<path d="M69.6854 10.3963V11.4644H69.5424V10.3963H69.1849V10.2776H70.019V10.3963H69.6854Z" fill="black"/>
<path d="M71.1391 11.4882V10.3963L70.8055 11.4882H70.7101L70.3765 10.3963V11.4882H70.2573V10.3014H70.4718L70.7816 11.2508L71.0915 10.3014H71.3059V11.4882H71.1391Z" fill="black"/>
<path d="M23.6178 3.39418H22.8075C22.8075 3.2755 22.736 2.96694 22.5692 2.44475H21.3775C21.2107 2.96694 21.1392 3.2755 21.1392 3.39418H20.3766C20.3766 3.32297 20.5672 2.77705 20.9724 1.75641C21.3775 0.73577 21.5682 0.16611 21.5682 0.071167H22.5453C22.5453 0.16611 22.736 0.712034 23.0935 1.73267C23.4271 2.75331 23.6178 3.29924 23.6178 3.39418ZM22.4262 1.9463C22.1402 1.06807 21.9972 0.593355 21.9972 0.522147H21.9495C21.9495 0.593355 21.8065 1.06807 21.4967 1.9463H22.4262Z" fill="black"/>
<path d="M26.9066 3.39423H26.2631C26.2631 3.32303 26.0248 2.96699 25.5482 2.27865C25.0477 1.56658 24.7855 1.09186 24.714 0.830767H24.6664C24.714 1.21054 24.7379 1.54284 24.7379 1.85141C24.7379 2.27865 24.7379 2.7771 24.7855 3.39423H24.1659C24.1897 2.87205 24.2136 2.27865 24.2136 1.66152C24.2136 1.04439 24.1897 0.522202 24.1659 0.0712212H24.9285C24.9285 0.166164 25.143 0.522202 25.572 1.13933C26.0248 1.80394 26.287 2.25492 26.3346 2.49227H26.3823C26.3346 2.1125 26.3108 1.7802 26.3108 1.47163C26.3108 1.02065 26.287 0.545937 26.2631 0.0474854H26.9066C26.8828 0.47473 26.8589 0.996918 26.8589 1.63778C26.8828 2.30239 26.8828 2.87205 26.9066 3.39423Z" fill="black"/>
<path d="M30.6245 1.61399C30.6245 2.08871 30.4577 2.51596 30.1478 2.87199C29.838 3.22803 29.409 3.41792 28.8371 3.41792C28.5749 3.41792 28.2413 3.41792 27.7885 3.39418C27.8123 2.87199 27.8123 2.30233 27.8123 1.66147C27.8123 1.04434 27.8123 0.522147 27.7885 0.071167H28.2413C28.3128 0.071167 28.4319 0.071167 28.5749 0.071167C28.7179 0.071167 28.8132 0.071167 28.8609 0.071167C29.4805 0.071167 29.9334 0.213582 30.1955 0.522147C30.4815 0.830713 30.6245 1.18675 30.6245 1.61399ZM29.9095 1.73267C29.9095 1.40037 29.8142 1.13928 29.6235 0.90192C29.4329 0.688298 29.1469 0.569619 28.7417 0.569619C28.6702 0.569619 28.5749 0.569619 28.4319 0.593355C28.4558 0.925656 28.4558 1.28169 28.4558 1.66147C28.4558 2.06497 28.4558 2.46848 28.4796 2.87199C28.5988 2.89573 28.6941 2.89573 28.8132 2.89573C29.1707 2.89573 29.4567 2.77705 29.6235 2.56343C29.838 2.32607 29.9095 2.06497 29.9095 1.73267Z" fill="black"/>
<path d="M34.0324 3.39418H33.2698C33.0791 2.80079 32.9123 2.42101 32.817 2.2786C32.7216 2.13618 32.531 2.06497 32.3165 2.06497C32.2211 2.06497 32.1258 2.06497 32.0305 2.06497C32.0305 2.49222 32.0305 2.9432 32.0543 3.39418H31.3394C31.3632 2.87199 31.3632 2.30233 31.3632 1.66147C31.3632 1.04434 31.3632 0.522147 31.3394 0.071167H31.7922C31.8398 0.071167 31.959 0.071167 32.102 0.071167C32.2688 0.071167 32.4118 0.071167 32.5548 0.071167C33.3413 0.071167 33.7226 0.332261 33.7226 0.878185C33.7226 1.30543 33.5081 1.59026 33.0553 1.75641V1.80388C33.2221 1.85135 33.3889 1.99377 33.5081 2.20739C33.6511 2.39728 33.8179 2.80079 34.0324 3.39418ZM33.0791 1.04434C33.0791 0.712034 32.8646 0.545883 32.4118 0.545883C32.245 0.545883 32.102 0.545883 31.9828 0.593355C32.0067 0.854449 32.0067 1.21049 32.0067 1.61399C32.102 1.61399 32.1735 1.61399 32.245 1.61399C32.817 1.61399 33.0791 1.42411 33.0791 1.04434Z" fill="black"/>
<path d="M37.7026 1.68524C37.7026 2.20743 37.5358 2.63468 37.226 2.99071C36.9161 3.32301 36.511 3.5129 36.0343 3.5129C35.5815 3.5129 35.2002 3.34675 34.9142 3.03818C34.6044 2.72962 34.4614 2.32611 34.4614 1.82766C34.4614 1.30547 34.6283 0.878225 34.9381 0.522188C35.2479 0.189887 35.653 0 36.1297 0C36.5825 0 36.9638 0.166151 37.2498 0.474716C37.5596 0.783282 37.7026 1.18679 37.7026 1.68524ZM37.0115 1.75645C37.0115 1.40041 36.9161 1.11558 36.7493 0.901961C36.5587 0.688339 36.3442 0.56966 36.082 0.56966C35.8437 0.56966 35.6292 0.688339 35.4385 0.901961C35.2717 1.11558 35.1764 1.40041 35.1764 1.75645C35.1764 2.11249 35.2717 2.39732 35.4624 2.61094C35.653 2.82456 35.8675 2.94324 36.1297 2.94324C36.368 2.94324 36.5825 2.82456 36.7731 2.61094C36.9161 2.37358 37.0115 2.08875 37.0115 1.75645Z" fill="black"/>
<path d="M39.1564 3.39418H38.4414C38.4652 2.87199 38.4652 2.2786 38.4652 1.66147C38.4652 1.04434 38.4652 0.522147 38.4414 0.071167H39.1564C39.1325 0.498412 39.1325 1.0206 39.1325 1.66147C39.1325 2.30233 39.1325 2.87199 39.1564 3.39418Z" fill="black"/>
<path d="M42.8742 1.61399C42.8742 2.08871 42.7074 2.51596 42.3976 2.87199C42.0878 3.22803 41.6588 3.41792 41.0868 3.41792C40.8247 3.41792 40.491 3.41792 40.0382 3.39418C40.062 2.87199 40.062 2.30233 40.062 1.66147C40.062 1.04434 40.062 0.522147 40.0382 0.071167H40.491C40.5625 0.071167 40.6817 0.071167 40.8247 0.071167C40.9677 0.071167 41.063 0.071167 41.1107 0.071167C41.7303 0.071167 42.1831 0.213582 42.4453 0.522147C42.7313 0.830713 42.8742 1.18675 42.8742 1.61399ZM42.1593 1.73267C42.1593 1.40037 42.0639 1.13928 41.8733 0.90192C41.6826 0.688298 41.3966 0.569619 40.9915 0.569619C40.92 0.569619 40.8247 0.569619 40.6817 0.593355C40.7055 0.925656 40.7055 1.28169 40.7055 1.66147C40.7055 2.06497 40.7055 2.46848 40.7293 2.87199C40.8485 2.89573 40.9438 2.89573 41.063 2.89573C41.4205 2.89573 41.7065 2.77705 41.8733 2.56343C42.0878 2.32607 42.1593 2.06497 42.1593 1.73267Z" fill="black"/>
<path d="M47.7837 3.39418H46.9734C46.9734 3.2755 46.9019 2.96694 46.735 2.44475H45.5434C45.3766 2.96694 45.3051 3.2755 45.3051 3.39418H44.5425C44.5425 3.32297 44.7331 2.77705 45.1383 1.75641C45.5434 0.73577 45.7341 0.16611 45.7341 0.071167H46.7112C46.7112 0.16611 46.9019 0.712034 47.2594 1.73267C47.6168 2.75331 47.7837 3.29924 47.7837 3.39418ZM46.6159 1.9463C46.3299 1.06807 46.1869 0.593355 46.1869 0.522147H46.1392C46.1392 0.593355 45.9962 1.06807 45.6864 1.9463H46.6159Z" fill="black"/>
<path d="M50.7865 0.949392C50.7865 1.3529 50.6435 1.66147 50.3337 1.85135C50.0238 2.04124 49.6664 2.13618 49.2136 2.13618C49.1421 2.13618 49.0706 2.13618 49.0467 2.13618C49.0467 2.44475 49.0467 2.87199 49.0706 3.39418H48.3556C48.3794 2.89573 48.3794 2.32607 48.3794 1.66147C48.3794 1.04434 48.3794 0.522147 48.3556 0.071167H48.8084C48.8799 0.071167 48.9991 0.071167 49.1659 0.071167C49.3565 0.071167 49.4995 0.071167 49.6425 0.071167C49.9762 0.071167 50.2383 0.142374 50.4528 0.284789C50.6673 0.427204 50.7865 0.640826 50.7865 0.949392ZM50.1192 1.09181C50.1192 0.73577 49.8809 0.545883 49.3804 0.545883C49.2612 0.545883 49.1421 0.569619 48.9991 0.593355C49.0229 0.925656 49.0229 1.28169 49.0229 1.6852C49.0706 1.6852 49.1182 1.6852 49.1659 1.6852C49.8094 1.6852 50.1192 1.47158 50.1192 1.09181Z" fill="black"/>
<path d="M53.837 0.949392C53.837 1.3529 53.694 1.66147 53.3842 1.85135C53.0744 2.04124 52.7169 2.13618 52.2641 2.13618C52.1926 2.13618 52.1211 2.13618 52.0973 2.13618C52.0973 2.44475 52.0973 2.87199 52.1211 3.39418H51.4061C51.43 2.89573 51.43 2.32607 51.43 1.66147C51.43 1.04434 51.43 0.522147 51.4061 0.071167H51.8589C51.9304 0.071167 52.0496 0.071167 52.2164 0.071167C52.4071 0.071167 52.5501 0.071167 52.6931 0.071167C53.0267 0.071167 53.2889 0.142374 53.5034 0.284789C53.7417 0.427204 53.837 0.640826 53.837 0.949392ZM53.1935 1.09181C53.1935 0.73577 52.9552 0.545883 52.4547 0.545883C52.3356 0.545883 52.2164 0.569619 52.0734 0.593355C52.0973 0.925656 52.0973 1.28169 52.0973 1.6852C52.1449 1.6852 52.1926 1.6852 52.2403 1.6852C52.8837 1.6852 53.1935 1.47158 53.1935 1.09181Z" fill="black"/>
<path d="M58.8656 1.68524C58.8656 2.20743 58.6988 2.63468 58.3889 2.99071C58.0791 3.32301 57.674 3.5129 57.1973 3.5129C56.7445 3.5129 56.3632 3.34675 56.0772 3.03818C55.7674 2.72962 55.6244 2.32611 55.6244 1.82766C55.6244 1.30547 55.7912 0.878225 56.101 0.522188C56.4109 0.189887 56.816 0 57.2927 0C57.7455 0 58.1268 0.166151 58.4128 0.474716C58.7226 0.783282 58.8656 1.18679 58.8656 1.68524ZM58.1506 1.75645C58.1506 1.40041 58.0553 1.11558 57.8885 0.901961C57.6978 0.688339 57.4833 0.56966 57.2212 0.56966C56.9828 0.56966 56.7683 0.688339 56.5777 0.901961C56.4109 1.11558 56.3155 1.40041 56.3155 1.75645C56.3155 2.11249 56.4109 2.39732 56.6015 2.61094C56.7922 2.82456 57.0067 2.94324 57.2688 2.94324C57.5071 2.94324 57.7216 2.82456 57.9123 2.61094C58.0791 2.37358 58.1506 2.08875 58.1506 1.75645Z" fill="black"/>
<path d="M62.3451 3.39423H61.7016C61.7016 3.32303 61.4633 2.96699 60.9867 2.27865C60.4862 1.56658 60.224 1.09186 60.1525 0.830767H60.1049C60.1525 1.21054 60.1764 1.54284 60.1764 1.85141C60.1764 2.27865 60.1764 2.7771 60.224 3.39423H59.5806C59.6044 2.87205 59.6282 2.27865 59.6282 1.66152C59.6282 1.04439 59.6044 0.522202 59.5806 0.0712212H60.3432C60.3432 0.166164 60.5577 0.522202 60.9867 1.13933C61.4395 1.80394 61.7016 2.25492 61.7493 2.49227H61.797C61.7493 2.1125 61.7255 1.7802 61.7255 1.47163C61.7255 1.02065 61.7255 0.545937 61.6778 0.0474854H62.3213C62.2974 0.47473 62.2736 0.996918 62.2736 1.63778C62.2974 2.30239 62.3213 2.87205 62.3451 3.39423Z" fill="black"/>
<path d="M7.48334 10.7049C6.91137 11.5119 6.3394 12.3189 5.74359 13.1022C4.14683 15.3096 2.57391 17.5171 0.977149 19.7008C0.810324 19.9381 0.738827 19.9619 0.476673 19.8194C0.143022 19.6296 2.85059e-05 19.321 -0.0238037 18.965C-0.0238037 18.9175 -0.0238037 18.87 -0.0238037 18.8463C-0.0238037 13.4108 -0.0238037 7.99901 -0.0238037 2.56352C-0.0238037 2.18374 0.0715251 1.8277 0.429008 1.61408C0.714995 1.4242 0.810324 1.44793 1.00098 1.70903C3.12205 4.65227 5.24312 7.57177 7.34035 10.515C7.38802 10.5625 7.43568 10.6337 7.48334 10.7049Z" fill="black"/>
<path d="M11.6063 7.40564C12.1544 7.71421 12.6549 7.99904 13.1792 8.28387C14.0849 8.80605 15.0143 9.32824 15.9199 9.85043C16.4204 10.1353 16.6111 10.6337 16.3489 11.0847C16.2536 11.2508 16.1106 11.3933 15.9438 11.4882C14.5138 12.319 13.0839 13.126 11.6301 13.9567C11.6063 13.9093 11.5586 13.8855 11.5348 13.838C10.8198 12.8411 10.081 11.8442 9.36607 10.8236C9.29458 10.7287 9.27075 10.6574 9.34224 10.5625C10.081 9.54186 10.8437 8.49749 11.5825 7.47685C11.5825 7.45311 11.5825 7.42938 11.6063 7.40564Z" fill="black"/>
<path d="M3.69403 2.89587C5.91042 4.15387 8.12682 5.41187 10.367 6.6936C9.69975 7.6193 9.03244 8.52126 8.36514 9.47069C6.79222 7.287 5.21929 5.1033 3.64636 2.94335C3.67019 2.91961 3.69403 2.91961 3.69403 2.89587Z" fill="black"/>
<path d="M3.67017 18.4427C5.24309 16.2828 6.79219 14.0991 8.36511 11.9154C9.03241 12.8411 9.69972 13.7431 10.367 14.6925C8.12679 15.9505 5.91039 17.2322 3.694 18.4902C3.694 18.4902 3.67017 18.4665 3.67017 18.4427Z" fill="black"/>
</g>
<defs>
<clipPath id="clip0">
<rect width="100" height="23" fill="white"/>
</clipPath>
</defs>
</svg>
