<?xml version="1.0" encoding="UTF-8" standalone="no"?>
<!-- Generated by IcoMoon.io -->

<svg
   xmlns:dc="http://purl.org/dc/elements/1.1/"
   xmlns:cc="http://creativecommons.org/ns#"
   xmlns:rdf="http://www.w3.org/1999/02/22-rdf-syntax-ns#"
   xmlns:svg="http://www.w3.org/2000/svg"
   xmlns="http://www.w3.org/2000/svg"
   xmlns:sodipodi="http://sodipodi.sourceforge.net/DTD/sodipodi-0.dtd"
   xmlns:inkscape="http://www.inkscape.org/namespaces/inkscape"
   version="1.1"
   viewBox="0 0 1719.978 406.65302"
   id="svg5387"
   inkscape:version="0.91 r13725"
   sodipodi:docname="logo.svg"
   width="1719.978"
   height="406.65302">
  <metadata
     id="metadata5402">
    <rdf:RDF>
      <cc:Work
         rdf:about="">
        <dc:format>image/svg+xml</dc:format>
        <dc:type
           rdf:resource="http://purl.org/dc/dcmitype/StillImage" />
        <dc:title></dc:title>
      </cc:Work>
    </rdf:RDF>
  </metadata>
  <defs
     id="defs5400" />
  <sodipodi:namedview
     pagecolor="#ffffff"
     bordercolor="#666666"
     borderopacity="1"
     objecttolerance="10"
     gridtolerance="10"
     guidetolerance="10"
     inkscape:pageopacity="0"
     inkscape:pageshadow="2"
     inkscape:window-width="1920"
     inkscape:window-height="1056"
     id="namedview5398"
     showgrid="false"
     fit-margin-top="0"
     fit-margin-left="0"
     fit-margin-right="0"
     fit-margin-bottom="0"
     inkscape:zoom="0.15697674"
     inkscape:cx="859.822"
     inkscape:cy="203.327"
     inkscape:window-x="1368"
     inkscape:window-y="24"
     inkscape:window-maximized="1"
     inkscape:current-layer="svg5387" />
  <g
     id="icomoon-ignore"
     transform="translate(-0.178,-308.674)" />
  <path
     d="m 936.552,364.628 c -45.691,38.718 -107.013,39.259 -124.268,39.259 -22.606,0 -95.17,-1.082 -147.896,-56.454 -6.656,-7.278 -12.624,-15.391 -17.678,-24.1 l -0.358,-0.668 59.699,-41.422 c 16.653,24.709 48.096,56.993 117.776,56.993 0.407,0.004 0.886,0.007 1.368,0.007 9.413,0 18.596,-0.987 27.449,-2.865 l -0.861,0.152 c 8.057,-1.623 45.15,-12.024 45.15,-47.314 10e-4,-0.123 0.003,-0.27 0.003,-0.415 0,-8.306 -2.612,-16.002 -7.058,-22.312 l 0.082,0.123 C 877.034,248.418 842.646,243.547 823.828,239.28 l -45.15,-10.22 c -19.359,-4.269 -40.341,-8.597 -57.534,-18.036 -32.282,-15.719 -54.135,-48.279 -54.135,-85.944 0,-0.791 0.01,-1.581 0.029,-2.369 l -0.003,0.116 c 0,-0.115 0,-0.252 0,-0.389 0,-20.396 5.374,-39.537 14.784,-56.086 l -0.294,0.562 C 698.719,37.876 740.142,4.509 817.036,4.509 c 33.908,0 100.581,5.411 153.247,76.893 l -58.617,43.587 c -12.024,-18.818 -38.718,-56.454 -98.417,-56.454 -3.788,0 -51.644,-0.541 -67.215,29.038 -2.69,4.779 -4.274,10.491 -4.274,16.574 0,0.218 10e-4,0.436 0.006,0.654 l 0,-0.032 c -10e-4,0.101 -10e-4,0.221 -10e-4,0.341 0,6.243 1.791,12.067 4.89,16.986 l -0.078,-0.133 c 9.138,15.571 30.06,20.441 65.05,27.956 l 39.259,8.597 c 36.072,8.057 75.811,18.818 101.122,48.397 10.761,12.024 22.004,29.038 22.004,64.028 0,34.99 -10.761,60.781 -37.095,83.327 z m 247.816,29.639 -0.541,-27.414 c -21.721,20.961 -51.327,33.876 -83.952,33.876 -0.921,0 -1.842,-0.01 -2.759,-0.031 l 0.137,0.003 c -44.609,0 -66.673,-19.359 -77.434,-35.471 -17.194,-25.31 -15.571,-55.912 -15.571,-84.95 l 0,-154.929 65.11,0 0,145.19 c 0,22.065 -1.082,48.096 21.523,61.322 8.854,5.069 19.461,8.058 30.766,8.058 0.154,0 0.306,0 0.46,-10e-4 l -0.024,0 c 0.326,0.007 0.709,0.01 1.095,0.01 21.86,0 40.916,-12.003 50.939,-29.777 l 0.151,-0.292 c 10.761,-20.441 10.22,-49.479 10.22,-70.461 l 0,-114.228 64.509,0 0,268.917 z m 180.36,-159.198 c -3.187,10.962 -5.02,23.554 -5.02,36.574 0,2.657 0.077,5.297 0.227,7.916 l -0.017,-0.362 0,115.07 -62.284,0 0,-268.917 62.405,0 0,38.177 c 4.335,-8.507 9.715,-15.788 16.1,-22.052 l 0.013,-0.013 c 21.523,-20.982 69.379,-22.065 69.379,-22.065 l 0,66.132 c -13.467,0 -65.05,0 -80.681,49.479 z m 330.361,126.854 c -27.61,25.029 -64.424,40.35 -104.815,40.35 -0.583,0 -1.165,-0.003 -1.746,-0.01 l 0.088,0.001 c -0.756,0.015 -1.647,0.024 -2.541,0.024 -36.098,0 -68.993,-13.706 -93.766,-36.198 l 0.116,0.103 c -30.661,-29.038 -42.084,-66.132 -42.084,-108.216 -0.017,-0.863 -0.025,-1.881 -0.025,-2.901 0,-22.23 4.427,-43.426 12.449,-62.754 l -0.4,1.086 c 12.024,-26.873 45.15,-76.352 123.186,-76.352 60.12,0 91.983,31.202 105.931,51.644 12.384,18.818 24.769,51.644 26.392,103.828 l -198.998,0 c 1.751,15.707 7.953,29.708 17.299,41.013 l -0.105,-0.13 c 9.138,11.302 25.31,25.791 58.617,25.791 33.307,0 66.673,-31.202 70.461,-37.095 l 54.83,31.743 c -7.485,10.448 -15.606,19.599 -24.58,27.839 l -0.129,0.117 z m -53.808,-158.597 c -8.676,-20.45 -28.585,-34.532 -51.783,-34.532 -1.071,0 -2.137,0.029 -3.194,0.089 l 0.147,-0.007 c -0.583,-0.018 -1.268,-0.029 -1.955,-0.029 -9.006,0 -17.592,1.8 -25.416,5.06 l 0.438,-0.162 c -30.06,12.384 -37.095,42.504 -38.718,51.644 l 125.891,0 c -1.113,-8.257 -3.006,-15.703 -5.646,-22.786 l 0.236,0.722 z"
     id="path5392"
     inkscape:connector-curvature="0"
     style="fill:#202759" />
  <path
     d="M 181.383,406.653 C 79.659,406.653 0,324.348 0,219.319 L 0,0 l 181.383,0 0,69.439 -112.004,0 0,149.88 c 0,67.215 48.096,117.896 112.004,117.896 z m 53.086,-295.671 -37.095,64.81 74.789,0 z"
     id="path5394"
     inkscape:connector-curvature="0"
     style="fill:#ef3e63" />
  <path
     d="m 181.383,406.653 0,-69.439 c 60.12,0 110.621,-49.118 110.621,-107.254 l 0,-160.521 -110.621,0 0,-69.439 179.94,0 0,229.96 c 0,97.455 -80.741,176.693 -180,176.693 z M 123.967,228.636 c 0,33.967 27.536,61.503 61.503,61.503 33.967,0 61.503,-27.536 61.503,-61.503 l 0,0 z m 41.364,-116.812 -60.841,0 0,60.962 60.841,0 z m 455.47,95.771 c 0,-15.09 0,-33.908 -6.975,-48.096 -4.811,-8.711 -11.33,-15.921 -19.156,-21.389 l -0.203,-0.134 c -16.653,-12.024 -42.444,-20.982 -86.574,-20.982 -46.773,0 -72.145,10.761 -88.738,24.769 -17.736,14.901 -28.954,37.064 -29.038,61.849 l 0,0.014 65.591,3.788 c -0.06,-0.766 -0.094,-1.66 -0.094,-2.56 0,-7.97 2.655,-15.321 7.131,-21.213 l -0.063,0.087 c 6.975,-9.138 22.606,-16.653 47.314,-16.653 23.688,0 37.155,8.057 42.504,18.036 2.434,5.78 3.849,12.5 3.849,19.552 0,0.884 -0.022,1.762 -0.066,2.636 l 0.006,-0.123 c -19.9,6.975 -34.449,10.22 -74.188,18.036 -24.709,4.81 -45.751,8.057 -67.756,23.147 -22.105,14.058 -36.56,38.426 -36.56,66.167 0,0.368 0.003,0.735 0.007,1.102 l 0,-0.056 c -0.017,0.596 -0.027,1.296 -0.027,2 0,15.247 4.494,29.445 12.229,41.34 l -0.179,-0.294 c 24.769,39.8 73.107,41.422 86.032,41.422 19.683,-0.038 38.29,-4.604 54.848,-12.712 l -0.74,0.327 c 9.501,-3.904 17.687,-8.964 24.893,-15.133 l -0.123,0.103 0,19.599 c 0,0.763 0.619,1.383 1.383,1.383 l 64.389,0 c 0.001,0 0.003,0 0.006,0 0.199,0 0.361,-0.162 0.361,-0.361 0,-0.021 -10e-4,-0.042 -0.006,-0.063 l 0,0.003 z M 556.232,289.9 c 0.166,1.53 0.263,3.305 0.263,5.102 0,7.109 -1.491,13.869 -4.175,19.987 l 0.124,-0.32 c -6.013,12.384 -26.873,30.661 -62.405,30.661 -32.285,0 -44.068,-15.631 -44.068,-31.743 0.151,-11.399 6.299,-21.328 15.427,-26.794 l 0.144,-0.08 c 13.467,-8.057 29.038,-8.597 43.587,-11.302 19.011,-2.492 36.251,-7.797 52.094,-15.528 l -0.993,0.438 z"
     id="path5396"
     inkscape:connector-curvature="0"
     style="fill:#202759" />
</svg>
