<svg width="55" height="32" viewBox="0 0 55 32" fill="none" xmlns="http://www.w3.org/2000/svg">
<path d="M6.56857 29.8257C6.85143 29.4171 7.00857 28.8828 7.00857 28.3171C7.00857 27.7828 6.88286 27.3743 6.66286 27.0285C6.41143 26.6828 6.06571 26.3685 5.62571 26.0857C5.15429 25.8028 4.55714 25.4885 3.77143 25.1114C3.3 24.8914 2.98571 24.7028 2.79714 24.5457C2.57714 24.3571 2.45143 24.1057 2.45143 23.8543C2.45143 23.5714 2.57714 23.32 2.79714 23.1314C3.01714 22.9428 3.33143 22.8485 3.77143 22.8485C4.36857 22.8485 4.96571 22.9743 5.5 23.2257C5.87714 23.3828 6.22286 23.6028 6.56857 23.7914V22C6.47429 21.9371 6.31714 21.8743 6.06571 21.7485C5.78286 21.6228 5.37429 21.4971 4.93429 21.4028C4.46286 21.3085 3.96 21.2457 3.42571 21.2457C2.67143 21.2457 2.01143 21.3714 1.50857 21.6228C1.00571 21.8743 0.628571 22.1885 0.377143 22.5971C0.125714 22.9743 0 23.4457 0 23.9485C0 24.4514 0.125714 24.9228 0.377143 25.3C0.628571 25.6771 0.942857 26.0228 1.35143 26.2743C1.76 26.5257 2.23143 26.7771 2.76571 27.0285C3.26857 27.2171 3.67714 27.4371 3.96 27.6257C4.27429 27.8457 4.46286 28.16 4.46286 28.5057C4.46286 28.7257 4.36857 28.9457 4.18 29.1343C3.99143 29.3543 3.58286 29.48 2.98571 29.48C2.38857 29.48 1.82286 29.3543 1.28857 29.1343C0.911429 28.9771 0.502857 28.7571 0.0942857 28.5371V30.4543C0.565714 30.6428 1.03714 30.8 1.47714 30.9257C1.98 31.02 2.35714 31.1143 2.67143 31.1143C2.95429 31.1457 3.20571 31.1457 3.42571 31.1457C4.14857 31.1457 4.77714 31.02 5.34286 30.8C5.84571 30.58 6.28571 30.2657 6.56857 29.8257ZM13.6714 28.3485L13.5457 28.4428C13.1057 28.7571 12.8229 28.9143 12.6343 29.0085C12.3829 29.1028 12.1314 29.1657 11.9114 29.1657C11.4714 29.1657 11.0629 29.0085 10.78 28.6628C10.4971 28.3485 10.34 27.9714 10.2771 27.5C10.1829 26.8714 10.2457 26.2743 10.4029 25.74C10.5914 25.1743 10.9057 24.7343 11.3143 24.42C11.7543 24.1057 12.2571 23.9171 12.8229 23.9171H13.64L13.6714 28.3485ZM13.6086 30.8H15.9657V22.5971C15.4 22.5028 14.9914 22.44 14.6771 22.4085C14.3314 22.3771 13.8914 22.3457 13.3571 22.3457C12.1 22.3457 11.0943 22.5028 10.2771 22.8171C9.49143 23.1314 8.92571 23.54 8.54857 24.0428C8.17143 24.5457 7.95143 25.08 7.85714 25.6457C7.76286 26.2114 7.76286 26.7771 7.82571 27.3114C7.92 27.9714 8.14 28.5685 8.45429 29.1028C8.76857 29.6371 9.17714 30.0771 9.68 30.4228C10.1514 30.7371 10.6857 30.8943 11.2514 30.8943C11.6914 30.8943 12.0371 30.8314 12.2886 30.6743C12.54 30.5171 12.8229 30.2971 13.1057 30.0143L13.5457 29.5428L13.6086 30.8ZM23.1 30.8H25.4571V25.74C25.4571 25.3 25.4257 24.9543 25.3943 24.7971C25.3 24.1685 25.0486 23.6028 24.64 23.1C24.2314 22.5971 23.6343 22.3771 22.8171 22.3771C22.2829 22.3771 21.8429 22.4714 21.4971 22.66C21.1514 22.8485 20.7114 23.1314 20.2714 23.5085L19.8314 23.8543V22.5343H17.4743V30.8H19.8V25.6457L19.8629 25.5828C20.3029 25.1114 20.6486 24.7657 20.9314 24.5457C21.2457 24.3257 21.56 24.2 21.9371 24.2C22.2829 24.2 22.9114 24.3257 23.0371 25.2685C23.0686 25.4257 23.0686 25.52 23.0686 25.6143L23.1 30.8ZM29.92 30.9571C30.6743 30.9571 31.3657 30.7685 31.9943 30.3914L31.7429 28.3485C31.2714 28.6943 30.8 28.8514 30.3914 28.8514C30.0771 28.8514 29.5114 28.7257 29.3543 27.9085C29.3229 27.7514 29.3229 27.5314 29.3229 27.28V24.1371H31.0829V22.22H29.3857V19.2971H26.9971V27.6257C26.9971 27.94 27.0286 28.2543 27.0914 28.5371C27.2171 29.1657 27.4686 29.6685 27.8771 30.0457C28.2229 30.3914 28.5686 30.6114 28.9143 30.7371C29.2286 30.8943 29.5743 30.9571 29.92 30.9571ZM38.3743 28.3485L38.2486 28.4428C37.9343 28.6628 37.62 28.9143 37.3686 29.0085C37.1171 29.1028 36.8657 29.1657 36.6457 29.1657C36.2057 29.1657 35.8286 29.0085 35.5143 28.6628C35.2314 28.3485 35.0743 27.9714 35.0114 27.5C34.9171 26.8714 34.98 26.2743 35.1371 25.74C35.3257 25.2057 35.64 24.7343 36.0486 24.42C36.4886 24.1057 36.9914 23.9171 37.5571 23.9171H38.3743V28.3485ZM38.3114 30.8H40.6686V22.5971C40.1029 22.5028 39.6943 22.44 39.38 22.4085C39.0343 22.3771 38.5943 22.3457 38.06 22.3457C36.8029 22.3457 35.7971 22.5028 34.98 22.8171C34.1943 23.1314 33.6286 23.54 33.2514 24.0428C32.8743 24.5457 32.6543 25.08 32.56 25.6457C32.4657 26.2114 32.4657 26.7771 32.5286 27.3114C32.6229 27.9714 32.8429 28.5685 33.1571 29.1343C33.4714 29.6685 33.9114 30.1085 34.3829 30.4543C34.8543 30.7685 35.3886 30.9257 35.9543 30.9257C36.3943 30.9257 36.74 30.8628 36.9914 30.7057C37.2743 30.5485 37.5257 30.3285 37.8086 30.0457L38.28 29.5743L38.3114 30.8ZM55 25.9285C55 25.3628 54.9686 24.9857 54.9371 24.7657C54.8429 24.1685 54.5914 23.6343 54.1514 23.1C53.7429 22.5971 53.0514 22.3457 52.14 22.3457C51.7629 22.3457 51.4171 22.4085 51.1343 22.5343C50.82 22.66 50.5686 22.8171 50.3486 22.9743C50.1286 23.1628 49.94 23.3514 49.7514 23.54L49.5314 23.8228L49.3429 23.5085C48.84 22.7228 48.1486 22.3457 47.2371 22.3457C46.7657 22.3457 46.3257 22.4714 45.9486 22.6914C45.54 22.9114 45.2257 23.1628 45.0057 23.4457L44.5343 23.98V22.5028H42.2086V30.8H44.5343V25.3943L44.5971 25.3314C44.9429 24.9228 45.2571 24.64 45.5086 24.4514C45.7914 24.2314 46.1057 24.1057 46.3886 24.1057C46.7029 24.1057 46.9229 24.2 47.1114 24.3885C47.2371 24.5457 47.3314 24.7971 47.3943 25.08C47.4257 25.2371 47.4257 25.5828 47.4257 26.1485V30.8314H49.7514V25.2057L49.8143 25.1428C50.4743 24.4514 51.0714 24.1371 51.5743 24.1371C51.8886 24.1371 52.4543 24.2943 52.6114 25.2685C52.6429 25.4257 52.6429 25.6457 52.6429 25.9285V30.8628H55V25.9285Z" fill="#143B75"/>
<path d="M29.2285 11.2829V10.6543H26.7771V11.2514C16.9085 11.44 7.85705 14.8029 0.659912 20.3029C0.659912 20.3029 1.75991 19.7372 2.89134 19.3914C8.79991 17.5372 14.5828 17.9457 18.1971 20.2714C20.7428 19.0143 23.9171 18.26 27.5942 18.2286C31.2713 18.2286 34.4771 18.9829 36.9913 20.2714C40.6056 17.9772 46.3885 17.5372 52.297 19.3914C53.4285 19.7372 54.5285 20.3029 54.5285 20.3029C47.5513 14.96 38.7828 11.6286 29.2285 11.2829Z" fill="#F4C748"/>
<path d="M54.9057 1.76H54.2771L53.2086 4.93429L52.14 1.76H51.5114L52.9257 5.62571L52.6428 6.38C52.5171 6.72571 52.3914 6.88286 51.9828 6.88286H51.7943V7.38571H52.0457C52.3286 7.38571 52.6114 7.32286 52.8 7.10286C52.9257 7.00857 52.9885 6.85143 53.0828 6.63143L54.9057 1.76ZM50.4114 3.74C50.4114 4.49429 50.2857 5.24857 49.4371 5.24857C48.5571 5.24857 48.4314 4.52571 48.4314 3.74C48.4314 2.98571 48.5571 2.23143 49.4371 2.23143C50.2857 2.23143 50.4114 2.98571 50.4114 3.74ZM50.9771 3.74C50.9771 3.11143 50.8828 2.45143 50.5057 2.07429C50.2857 1.85429 49.94 1.72857 49.5314 1.72857C49.0914 1.72857 48.7457 1.82286 48.4314 2.23143V0H47.8657V5.68857H48.4314V5.21714C48.7457 5.62571 49.0914 5.75143 49.5314 5.75143C49.94 5.75143 50.2857 5.62571 50.5057 5.40571C50.9143 4.99714 50.9771 4.36857 50.9771 3.74ZM44.6286 5.72V3.20571C44.6286 2.73429 44.5028 2.38857 44.22 2.10571C43.9686 1.85429 43.6228 1.72857 43.2143 1.72857C42.7743 1.72857 42.3971 1.88571 42.1143 2.2V1.76H41.5485V5.68857H42.1143V3.26857C42.1143 2.57714 42.4914 2.23143 43.0886 2.23143C43.6857 2.23143 44.0628 2.57714 44.0628 3.26857V5.68857H44.6286V5.72ZM39.82 3.45714H37.7143C37.7143 3.14286 37.7457 3.01714 37.84 2.79714C37.9971 2.45143 38.3428 2.2 38.7514 2.2C39.16 2.2 39.5057 2.42 39.6628 2.79714C39.7886 3.01714 39.7886 3.14286 39.82 3.45714ZM40.3857 3.89714V3.64571C40.3857 2.45143 39.7886 1.72857 38.7828 1.72857C37.7771 1.72857 37.18 2.45143 37.18 3.74C37.18 5.12286 37.84 5.75143 38.9086 5.75143C39.5686 5.75143 39.9457 5.53143 40.3543 5.15429L39.9771 4.80857C39.6628 5.12286 39.4114 5.24857 38.94 5.24857C38.1857 5.24857 37.7771 4.74571 37.7771 3.89714H40.3857ZM36.3314 5.72V5.21714H36.0171C35.64 5.21714 35.4828 4.99714 35.4828 4.65143V2.2H36.3314V1.76H35.4828V0.565714H34.9171V1.76H34.4143V2.2H34.9171V4.65143C34.9171 5.24857 35.2628 5.72 35.9228 5.72H36.3314ZM33.7543 5.72V5.21714H33.44C33.0628 5.21714 32.9057 4.99714 32.9057 4.65143V2.2H33.7543V1.76H32.9057V0.565714H32.34V1.76H31.8371V2.2H32.34V4.65143C32.34 5.24857 32.6857 5.72 33.3457 5.72H33.7543ZM30.9257 0H30.2657V0.66H30.9257V0ZM30.8943 1.76H30.3286V5.68857H30.8943V1.76ZM29.6371 2.07429C29.3543 1.79143 29.0714 1.69714 28.6943 1.69714C28.2228 1.69714 27.8143 1.88571 27.5943 2.23143V1.76H27.0286V5.68857H27.5943V3.26857C27.5943 2.67143 27.9714 2.2 28.5371 2.2C28.8514 2.2 29.0086 2.26286 29.2286 2.48286L29.6371 2.07429ZM26.2743 1.76H25.6457L24.7343 4.93429L23.7285 1.76H23.2257L22.1886 4.93429L21.2771 1.76H20.6485L21.9057 5.68857H22.44L23.4771 2.64L24.5143 5.68857H25.0485L26.2743 1.76ZM20.6485 2.07429C20.3657 1.79143 20.0828 1.69714 19.7057 1.69714C19.2343 1.69714 18.8257 1.88571 18.6057 2.23143V1.76H18.04V5.68857H18.6057V3.26857C18.6057 2.67143 18.9828 2.2 19.5485 2.2C19.8628 2.2 20.02 2.26286 20.24 2.48286L20.6485 2.07429ZM16.28 3.45714H14.2057C14.2057 3.14286 14.2371 3.01714 14.3314 2.79714C14.4885 2.45143 14.8343 2.2 15.2428 2.2C15.6514 2.2 15.9971 2.42 16.1543 2.79714C16.2485 3.01714 16.28 3.14286 16.28 3.45714ZM16.8771 3.89714V3.64571C16.8771 2.45143 16.28 1.72857 15.2743 1.72857C14.2685 1.72857 13.6714 2.45143 13.6714 3.74C13.6714 5.12286 14.3314 5.75143 15.4 5.75143C16.06 5.75143 16.4371 5.53143 16.8457 5.15429L16.4685 4.80857C16.1543 5.12286 15.9028 5.24857 15.4314 5.24857C14.6771 5.24857 14.2685 4.74571 14.2685 3.89714H16.8771ZM11.9114 3.74C11.9114 4.49429 11.7857 5.24857 10.9371 5.24857C10.0571 5.24857 9.93141 4.52571 9.93141 3.74C9.93141 2.98571 10.0571 2.23143 10.9371 2.23143C11.7857 2.23143 11.9114 2.98571 11.9114 3.74ZM12.4771 5.72V0H11.9114V2.23143C11.5971 1.82286 11.2514 1.72857 10.8114 1.72857C10.4028 1.72857 10.0571 1.85429 9.83712 2.07429C9.45998 2.45143 9.36569 3.11143 9.36569 3.74C9.36569 4.36857 9.45998 5.02857 9.83712 5.40571C10.0571 5.62571 10.4028 5.75143 10.8114 5.75143C11.2514 5.75143 11.5971 5.65714 11.9428 5.21714V5.68857H12.4771V5.72ZM8.23426 5.72V3.20571C8.23426 2.73429 8.10855 2.38857 7.82569 2.10571C7.57426 1.85429 7.22855 1.72857 6.81998 1.72857C6.37998 1.72857 6.00283 1.88571 5.71998 2.2V1.76H5.15426V5.68857H5.71998V3.26857C5.71998 2.57714 6.09712 2.23143 6.69426 2.23143C7.29141 2.23143 7.66855 2.57714 7.66855 3.26857V5.68857H8.23426V5.72ZM3.77141 5.72V1.76H3.20569V4.18C3.20569 4.87143 2.82855 5.21714 2.23141 5.21714C1.63426 5.21714 1.25712 4.90286 1.25712 4.18V1.76H0.691406V4.27429C0.691406 4.74571 0.817121 5.09143 1.09998 5.37429C1.35141 5.62571 1.69712 5.75143 2.10569 5.75143C2.54569 5.75143 2.92283 5.59429 3.20569 5.24857V5.68857H3.77141V5.72Z" fill="#989898"/>
</svg>
